<svg width="1400" height="900" viewBox="0 0 1400 900" fill="none" xmlns="http://www.w3.org/2000/svg">
  <rect width="1400" height="900" rx="48" fill="#07111F"/>
  <rect x="48" y="48" width="1304" height="804" rx="36" fill="url(#bg)" stroke="#203246" stroke-width="2"/>
  <rect x="108" y="112" width="1184" height="110" rx="28" fill="#0B1728" stroke="#1B3148"/>
  <rect x="144" y="146" width="164" height="16" rx="8" fill="#55ED71"/>
  <rect x="144" y="176" width="242" height="12" rx="6" fill="#60768F"/>
  <rect x="1108" y="142" width="136" height="44" rx="22" fill="url(#chip)"/>
  <rect x="108" y="258" width="612" height="500" rx="34" fill="#0A1626" stroke="#1E334A"/>
  <rect x="744" y="258" width="548" height="236" rx="34" fill="#0A1626" stroke="#1E334A"/>
  <rect x="744" y="522" width="548" height="236" rx="34" fill="#0A1626" stroke="#1E334A"/>
  <rect x="152" y="308" width="212" height="124" rx="26" fill="#102038"/>
  <rect x="184" y="340" width="88" height="12" rx="6" fill="#34A8FF"/>
  <rect x="184" y="366" width="126" height="10" rx="5" fill="#EEF4FA"/>
  <rect x="184" y="392" width="102" height="10" rx="5" fill="#60768F"/>
  <rect x="152" y="464" width="524" height="248" rx="28" fill="#0E1B2F"/>
  <path d="M192 644L284 566L374 598L470 486L560 520L636 438" stroke="url(#lineA)" stroke-width="8" stroke-linecap="round" stroke-linejoin="round"/>
  <path d="M192 644H644" stroke="#1E334A" stroke-width="3" stroke-linecap="round"/>
  <circle cx="192" cy="644" r="10" fill="#55ED71"/>
  <circle cx="284" cy="566" r="10" fill="#86F6A2"/>
  <circle cx="374" cy="598" r="10" fill="#9CE0FF"/>
  <circle cx="470" cy="486" r="10" fill="#34A8FF"/>
  <circle cx="560" cy="520" r="10" fill="#C8FFDA"/>
  <circle cx="636" cy="438" r="10" fill="#EEF4FA"/>
  <rect x="780" y="294" width="196" height="78" rx="24" fill="#102038"/>
  <rect x="812" y="324" width="92" height="12" rx="6" fill="#55ED71"/>
  <rect x="812" y="350" width="126" height="10" rx="5" fill="#60768F"/>
  <rect x="1020" y="294" width="236" height="78" rx="24" fill="#102038"/>
  <rect x="1052" y="324" width="102" height="12" rx="6" fill="#34A8FF"/>
  <rect x="1052" y="350" width="146" height="10" rx="5" fill="#60768F"/>
  <circle cx="1022" cy="640" r="124" fill="url(#glow)"/>
  <circle cx="1022" cy="640" r="92" fill="url(#core)"/>
  <ellipse cx="1022" cy="640" rx="182" ry="60" stroke="url(#orbit1)" stroke-width="5"/>
  <ellipse cx="1022" cy="640" rx="148" ry="120" transform="rotate(-24 1022 640)" stroke="url(#orbit2)" stroke-width="3"/>
  <ellipse cx="1022" cy="640" rx="148" ry="120" transform="rotate(24 1022 640)" stroke="url(#orbit3)" stroke-width="3"/>
  <rect x="778" y="556" width="170" height="84" rx="24" fill="#102038"/>
  <rect x="808" y="590" width="84" height="12" rx="6" fill="#55ED71"/>
  <rect x="808" y="616" width="102" height="10" rx="5" fill="#60768F"/>
  <rect x="1114" y="562" width="110" height="62" rx="22" fill="url(#chip)" opacity="0.92"/>
  <defs>
    <linearGradient id="bg" x1="92" y1="82" x2="1276" y2="812" gradientUnits="userSpaceOnUse">
      <stop stop-color="#091321"/>
      <stop offset="1" stop-color="#0D2036"/>
    </linearGradient>
    <linearGradient id="chip" x1="1114" y1="142" x2="1244" y2="202" gradientUnits="userSpaceOnUse">
      <stop stop-color="#7BF490"/>
      <stop offset="1" stop-color="#34A8FF"/>
    </linearGradient>
    <linearGradient id="lineA" x1="192" y1="538" x2="636" y2="538" gradientUnits="userSpaceOnUse">
      <stop stop-color="#55ED71"/>
      <stop offset="1" stop-color="#34A8FF"/>
    </linearGradient>
    <radialGradient id="glow" cx="0" cy="0" r="1" gradientUnits="userSpaceOnUse" gradientTransform="translate(1022 640) rotate(90) scale(124)">
      <stop stop-color="#55ED71" stop-opacity="0.26"/>
      <stop offset="1" stop-color="#34A8FF" stop-opacity="0"/>
    </radialGradient>
    <linearGradient id="core" x1="960" y1="554" x2="1080" y2="730" gradientUnits="userSpaceOnUse">
      <stop stop-color="#C8F3FF"/>
      <stop offset="0.52" stop-color="#54C5FF"/>
      <stop offset="1" stop-color="#2755C2"/>
    </linearGradient>
    <linearGradient id="orbit1" x1="840" y1="640" x2="1204" y2="640" gradientUnits="userSpaceOnUse">
      <stop stop-color="#55ED71" stop-opacity="0.2"/>
      <stop offset="0.5" stop-color="#EEF4FA"/>
      <stop offset="1" stop-color="#34A8FF" stop-opacity="0.2"/>
    </linearGradient>
    <linearGradient id="orbit2" x1="874" y1="640" x2="1170" y2="640" gradientUnits="userSpaceOnUse">
      <stop stop-color="#55ED71"/>
      <stop offset="1" stop-color="#34A8FF"/>
    </linearGradient>
    <linearGradient id="orbit3" x1="874" y1="640" x2="1170" y2="640" gradientUnits="userSpaceOnUse">
      <stop stop-color="#EEF4FA" stop-opacity="0.3"/>
      <stop offset="1" stop-color="#34A8FF"/>
    </linearGradient>
  </defs>
</svg>
