<svg width="1200" height="820" viewBox="0 0 1200 820" fill="none" xmlns="http://www.w3.org/2000/svg">
  <rect width="1200" height="820" rx="36" fill="#F7FAF4"/>
  <rect x="42" y="42" width="1116" height="736" rx="30" fill="url(#bg)"/>
  <rect x="110" y="130" width="390" height="250" rx="32" fill="white" stroke="#D9E5F1"/>
  <rect x="146" y="170" width="126" height="12" rx="6" fill="#1CBC43"/>
  <rect x="146" y="202" width="202" height="18" rx="9" fill="#07111F"/>
  <rect x="146" y="236" width="176" height="10" rx="5" fill="#6786A2"/>
  <circle cx="864" cy="274" r="148" fill="url(#glow)"/>
  <circle cx="864" cy="274" r="102" fill="url(#phoneCircle)"/>
  <rect x="826" y="206" width="76" height="136" rx="24" fill="#07111F"/>
  <rect x="852" y="226" width="24" height="88" rx="12" fill="#55ED71"/>
  <rect x="846" y="322" width="36" height="8" rx="4" fill="#F7FAF4"/>
  <path d="M500 492C588 432 654 404 734 404C820 404 866 452 950 452C1016 452 1060 426 1092 406" stroke="url(#line1)" stroke-width="8" stroke-linecap="round"/>
  <path d="M500 556C594 612 664 642 748 642C818 642 876 600 936 560" stroke="url(#line2)" stroke-width="8" stroke-linecap="round"/>
  <circle cx="500" cy="492" r="12" fill="#55ED71"/>
  <circle cx="734" cy="404" r="12" fill="#34A8FF"/>
  <circle cx="950" cy="452" r="12" fill="#07111F"/>
  <circle cx="500" cy="556" r="12" fill="#2454C0"/>
  <circle cx="936" cy="560" r="12" fill="#55ED71"/>
  <rect x="156" y="500" width="250" height="152" rx="30" fill="#07111F"/>
  <rect x="188" y="540" width="104" height="12" rx="6" fill="#55ED71"/>
  <rect x="188" y="572" width="156" height="16" rx="8" fill="#F7FAF4"/>
  <rect x="188" y="602" width="132" height="10" rx="5" fill="#6786A2"/>
  <defs>
    <linearGradient id="bg" x1="88" y1="70" x2="1104" y2="744" gradientUnits="userSpaceOnUse">
      <stop stop-color="#F7FAF4"/>
      <stop offset="1" stop-color="#EEF9FF"/>
    </linearGradient>
    <radialGradient id="glow" cx="0" cy="0" r="1" gradientUnits="userSpaceOnUse" gradientTransform="translate(864 274) rotate(90) scale(148)">
      <stop stop-color="#34A8FF" stop-opacity="0.32"/>
      <stop offset="1" stop-color="#34A8FF" stop-opacity="0"/>
    </radialGradient>
    <linearGradient id="phoneCircle" x1="792" y1="176" x2="934" y2="356" gradientUnits="userSpaceOnUse">
      <stop stop-color="#D8F1FF"/>
      <stop offset="1" stop-color="#2454C0"/>
    </linearGradient>
    <linearGradient id="line1" x1="500" y1="448" x2="1092" y2="448" gradientUnits="userSpaceOnUse">
      <stop stop-color="#55ED71"/>
      <stop offset="1" stop-color="#34A8FF"/>
    </linearGradient>
    <linearGradient id="line2" x1="500" y1="598" x2="936" y2="598" gradientUnits="userSpaceOnUse">
      <stop stop-color="#07111F"/>
      <stop offset="1" stop-color="#55ED71"/>
    </linearGradient>
  </defs>
</svg>
