<svg width="1200" height="760" viewBox="0 0 1200 760" fill="none" xmlns="http://www.w3.org/2000/svg">
  <rect width="1200" height="760" rx="36" fill="#07111F"/>
  <rect x="42" y="42" width="1116" height="676" rx="28" fill="url(#panel)" stroke="#21344A" stroke-width="2"/>
  <circle cx="285" cy="220" r="94" fill="url(#c1)" opacity="0.95"/>
  <circle cx="930" cy="188" r="72" fill="url(#c2)" opacity="0.92"/>
  <circle cx="838" cy="510" r="138" fill="url(#c3)" opacity="0.95"/>
  <path d="M267 221L535 196L820 188L931 188" stroke="url(#line1)" stroke-width="6" stroke-linecap="round"/>
  <path d="M286 219L430 430L636 376L836 512" stroke="url(#line2)" stroke-width="6" stroke-linecap="round"/>
  <path d="M536 198L642 378L929 190" stroke="url(#line3)" stroke-width="5" stroke-linecap="round"/>
  <path d="M838 512L638 575L364 544" stroke="url(#line4)" stroke-width="5" stroke-linecap="round"/>
  <circle cx="285" cy="220" r="18" fill="#F8FBFF"/>
  <circle cx="535" cy="196" r="14" fill="#55ED71"/>
  <circle cx="642" cy="378" r="14" fill="#34A8FF"/>
  <circle cx="364" cy="544" r="14" fill="#DDE7F2"/>
  <circle cx="930" cy="188" r="14" fill="#34A8FF"/>
  <circle cx="838" cy="512" r="18" fill="#F8FBFF"/>
  <rect x="112" y="104" width="236" height="98" rx="26" fill="#111E31" stroke="#2A3C52"/>
  <rect x="140" y="134" width="88" height="12" rx="6" fill="#1CBC43"/>
  <rect x="140" y="162" width="158" height="10" rx="5" fill="#71879E"/>
  <rect x="766" y="100" width="264" height="98" rx="26" fill="#0F1C2E" stroke="#24415D"/>
  <rect x="794" y="130" width="110" height="12" rx="6" fill="#34A8FF"/>
  <rect x="794" y="158" width="180" height="10" rx="5" fill="#71879E"/>
  <rect x="470" y="526" width="272" height="106" rx="28" fill="#121F32" stroke="#2A3C52"/>
  <rect x="500" y="557" width="96" height="12" rx="6" fill="#1CBC43"/>
  <rect x="500" y="584" width="188" height="10" rx="5" fill="#71879E"/>
  <defs>
    <linearGradient id="panel" x1="80" y1="76" x2="1098" y2="692" gradientUnits="userSpaceOnUse">
      <stop stop-color="#0C1728"/>
      <stop offset="1" stop-color="#10243B"/>
    </linearGradient>
    <radialGradient id="c1" cx="0" cy="0" r="1" gradientUnits="userSpaceOnUse" gradientTransform="translate(285 220) rotate(90) scale(94)">
      <stop stop-color="#55ED71"/>
      <stop offset="1" stop-color="#55ED71" stop-opacity="0"/>
    </radialGradient>
    <radialGradient id="c2" cx="0" cy="0" r="1" gradientUnits="userSpaceOnUse" gradientTransform="translate(930 188) rotate(90) scale(72)">
      <stop stop-color="#34A8FF"/>
      <stop offset="1" stop-color="#34A8FF" stop-opacity="0"/>
    </radialGradient>
    <radialGradient id="c3" cx="0" cy="0" r="1" gradientUnits="userSpaceOnUse" gradientTransform="translate(838 510) rotate(90) scale(138)">
      <stop stop-color="#34A8FF" stop-opacity="0.42"/>
      <stop offset="1" stop-color="#34A8FF" stop-opacity="0"/>
    </radialGradient>
    <linearGradient id="line1" x1="267" y1="205" x2="931" y2="205" gradientUnits="userSpaceOnUse">
      <stop stop-color="#55ED71"/>
      <stop offset="1" stop-color="#34A8FF"/>
    </linearGradient>
    <linearGradient id="line2" x1="286" y1="219" x2="836" y2="512" gradientUnits="userSpaceOnUse">
      <stop stop-color="#F8FBFF"/>
      <stop offset="1" stop-color="#34A8FF"/>
    </linearGradient>
    <linearGradient id="line3" x1="536" y1="198" x2="929" y2="190" gradientUnits="userSpaceOnUse">
      <stop stop-color="#55ED71"/>
      <stop offset="1" stop-color="#F8FBFF"/>
    </linearGradient>
    <linearGradient id="line4" x1="364" y1="544" x2="838" y2="512" gradientUnits="userSpaceOnUse">
      <stop stop-color="#F8FBFF"/>
      <stop offset="1" stop-color="#55ED71"/>
    </linearGradient>
  </defs>
</svg>
