<svg width="1200" height="900" viewBox="0 0 1200 900" fill="none" xmlns="http://www.w3.org/2000/svg">
  <rect width="1200" height="900" rx="44" fill="#07111F"/>
  <rect x="40" y="40" width="1120" height="820" rx="36" fill="url(#bg)"/>
  <circle cx="896" cy="288" r="206" fill="url(#glow)" opacity="0.95"/>
  <circle cx="896" cy="288" r="152" fill="url(#planet)"/>
  <path d="M778 288C778 350.408 830.592 403 893 403C955.408 403 1008 350.408 1008 288C1008 225.592 955.408 173 893 173C830.592 173 778 225.592 778 288Z" fill="url(#planetCore)" opacity="0.7"/>
  <path d="M862 189C831 209 815 241 812 270C846 263 887 250 917 227C942 208 957 185 964 162C923 166 889 173 862 189Z" fill="#9AE8FF" opacity="0.78"/>
  <path d="M786 311C814 300 838 307 862 323C882 336 905 345 941 340C968 336 987 322 998 309C969 302 940 293 918 281C891 267 860 257 828 264C803 269 791 285 786 311Z" fill="#C7FBDA" opacity="0.74"/>
  <path d="M872 353C854 368 850 389 852 410C878 401 908 389 930 371C948 357 963 337 972 318C944 322 891 334 872 353Z" fill="#8AD7FF" opacity="0.7"/>
  <ellipse cx="902" cy="291" rx="274" ry="92" stroke="url(#orbit)" stroke-width="7"/>
  <ellipse cx="896" cy="289" rx="216" ry="180" transform="rotate(-22 896 289)" stroke="url(#orbit2)" stroke-width="4" opacity="0.8"/>
  <ellipse cx="896" cy="289" rx="212" ry="176" transform="rotate(26 896 289)" stroke="url(#orbit3)" stroke-width="3" opacity="0.55"/>
  <circle cx="1097" cy="325" r="14" fill="#F7FAF4"/>
  <circle cx="695" cy="289" r="11" fill="#55ED71"/>
  <circle cx="878" cy="107" r="9" fill="#34A8FF"/>
  <rect x="104" y="122" width="352" height="78" rx="22" fill="#0F2037"/>
  <rect x="124" y="142" width="108" height="14" rx="7" fill="#55ED71"/>
  <rect x="124" y="168" width="194" height="10" rx="5" fill="#46607B"/>
  <rect x="104" y="230" width="292" height="236" rx="28" fill="#0D1A2C"/>
  <rect x="128" y="256" width="126" height="12" rx="6" fill="#34A8FF"/>
  <rect x="128" y="288" width="220" height="18" rx="9" fill="#F7FAF4"/>
  <rect x="128" y="321" width="192" height="18" rx="9" fill="#F7FAF4" fill-opacity="0.78"/>
  <rect x="128" y="360" width="138" height="54" rx="20" fill="url(#chip)"/>
  <rect x="276" y="360" width="92" height="54" rx="20" fill="#122640"/>
  <rect x="104" y="506" width="430" height="232" rx="30" fill="#0D1A2C"/>
  <rect x="128" y="534" width="164" height="12" rx="6" fill="#55ED71"/>
  <rect x="128" y="566" width="320" height="16" rx="8" fill="#F7FAF4"/>
  <rect x="128" y="597" width="286" height="16" rx="8" fill="#F7FAF4" fill-opacity="0.8"/>
  <path d="M136 668H502" stroke="#213A58" stroke-width="3" stroke-linecap="round"/>
  <path d="M164 666L226 625L282 647L344 590L412 617L478 564" stroke="url(#line)" stroke-width="8" stroke-linecap="round" stroke-linejoin="round"/>
  <circle cx="164" cy="666" r="9" fill="#55ED71"/>
  <circle cx="226" cy="625" r="9" fill="#77F3A7"/>
  <circle cx="282" cy="647" r="9" fill="#8EDBFF"/>
  <circle cx="344" cy="590" r="9" fill="#34A8FF"/>
  <circle cx="412" cy="617" r="9" fill="#C7FBDA"/>
  <circle cx="478" cy="564" r="9" fill="#F7FAF4"/>
  <rect x="680" y="576" width="362" height="112" rx="28" fill="#0D1A2C"/>
  <rect x="712" y="607" width="112" height="12" rx="6" fill="#34A8FF"/>
  <rect x="712" y="638" width="240" height="16" rx="8" fill="#F7FAF4"/>
  <rect x="968" y="598" width="42" height="66" rx="21" fill="url(#chip)" opacity="0.88"/>
  <defs>
    <linearGradient id="bg" x1="132" y1="72" x2="1088" y2="826" gradientUnits="userSpaceOnUse">
      <stop stop-color="#07111F"/>
      <stop offset="1" stop-color="#102038"/>
    </linearGradient>
    <radialGradient id="glow" cx="0" cy="0" r="1" gradientUnits="userSpaceOnUse" gradientTransform="translate(896 288) rotate(90) scale(206)">
      <stop stop-color="#55ED71" stop-opacity="0.32"/>
      <stop offset="0.45" stop-color="#34A8FF" stop-opacity="0.24"/>
      <stop offset="1" stop-color="#34A8FF" stop-opacity="0"/>
    </radialGradient>
    <linearGradient id="planet" x1="814" y1="150" x2="999" y2="427" gradientUnits="userSpaceOnUse">
      <stop stop-color="#B3E8FF"/>
      <stop offset="0.45" stop-color="#4FCBFF"/>
      <stop offset="1" stop-color="#2154C0"/>
    </linearGradient>
    <linearGradient id="planetCore" x1="825" y1="180" x2="975" y2="400" gradientUnits="userSpaceOnUse">
      <stop stop-color="#DDF7FF"/>
      <stop offset="1" stop-color="#2454C0"/>
    </linearGradient>
    <linearGradient id="orbit" x1="628" y1="288" x2="1176" y2="288" gradientUnits="userSpaceOnUse">
      <stop stop-color="#55ED71" stop-opacity="0.2"/>
      <stop offset="0.5" stop-color="#F7FAF4"/>
      <stop offset="1" stop-color="#34A8FF" stop-opacity="0.2"/>
    </linearGradient>
    <linearGradient id="orbit2" x1="680" y1="288" x2="1112" y2="288" gradientUnits="userSpaceOnUse">
      <stop stop-color="#55ED71"/>
      <stop offset="1" stop-color="#34A8FF"/>
    </linearGradient>
    <linearGradient id="orbit3" x1="680" y1="288" x2="1112" y2="288" gradientUnits="userSpaceOnUse">
      <stop stop-color="#F7FAF4" stop-opacity="0.3"/>
      <stop offset="1" stop-color="#34A8FF"/>
    </linearGradient>
    <linearGradient id="chip" x1="136" y1="360" x2="346" y2="482" gradientUnits="userSpaceOnUse">
      <stop stop-color="#1CBC43"/>
      <stop offset="1" stop-color="#34A8FF"/>
    </linearGradient>
    <linearGradient id="line" x1="164" y1="620" x2="478" y2="620" gradientUnits="userSpaceOnUse">
      <stop stop-color="#55ED71"/>
      <stop offset="1" stop-color="#34A8FF"/>
    </linearGradient>
  </defs>
</svg>
