<svg width="1200" height="820" viewBox="0 0 1200 820" fill="none" xmlns="http://www.w3.org/2000/svg">
  <rect width="1200" height="820" rx="36" fill="#07111F"/>
  <rect x="42" y="42" width="1116" height="736" rx="30" fill="url(#bg)"/>
  <rect x="106" y="130" width="280" height="154" rx="30" fill="#0F2037"/>
  <rect x="130" y="164" width="112" height="12" rx="6" fill="#55ED71"/>
  <rect x="130" y="194" width="188" height="16" rx="8" fill="#F7FAF4"/>
  <rect x="130" y="224" width="152" height="12" rx="6" fill="#6786A2"/>
  <rect x="454" y="130" width="290" height="154" rx="30" fill="#122640"/>
  <rect x="478" y="164" width="112" height="12" rx="6" fill="#34A8FF"/>
  <rect x="478" y="194" width="194" height="16" rx="8" fill="#F7FAF4"/>
  <rect x="478" y="224" width="170" height="12" rx="6" fill="#6786A2"/>
  <rect x="812" y="130" width="282" height="154" rx="30" fill="#16314C"/>
  <rect x="836" y="164" width="112" height="12" rx="6" fill="#55ED71"/>
  <rect x="836" y="194" width="194" height="16" rx="8" fill="#F7FAF4"/>
  <rect x="836" y="224" width="160" height="12" rx="6" fill="#6786A2"/>
  <path d="M386 208H454" stroke="url(#a1)" stroke-width="8" stroke-linecap="round"/>
  <path d="M744 208H812" stroke="url(#a2)" stroke-width="8" stroke-linecap="round"/>
  <circle cx="420" cy="208" r="10" fill="#55ED71"/>
  <circle cx="778" cy="208" r="10" fill="#34A8FF"/>
  <rect x="164" y="404" width="866" height="238" rx="34" fill="white" stroke="#D9E5F1"/>
  <path d="M218 556C272 514 330 472 394 472C458 472 486 542 550 542C614 542 648 440 716 440C784 440 818 520 880 520C930 520 974 486 1012 456" stroke="url(#curve)" stroke-width="10" stroke-linecap="round"/>
  <circle cx="394" cy="472" r="12" fill="#55ED71"/>
  <circle cx="550" cy="542" r="12" fill="#34A8FF"/>
  <circle cx="716" cy="440" r="12" fill="#07111F"/>
  <circle cx="880" cy="520" r="12" fill="#2454C0"/>
  <rect x="218" y="442" width="120" height="16" rx="8" fill="#55ED71"/>
  <rect x="218" y="478" width="182" height="12" rx="6" fill="#6786A2"/>
  <defs>
    <linearGradient id="bg" x1="96" y1="78" x2="1106" y2="742" gradientUnits="userSpaceOnUse">
      <stop stop-color="#07111F"/>
      <stop offset="1" stop-color="#102038"/>
    </linearGradient>
    <linearGradient id="a1" x1="386" y1="208" x2="454" y2="208" gradientUnits="userSpaceOnUse">
      <stop stop-color="#55ED71"/>
      <stop offset="1" stop-color="#34A8FF"/>
    </linearGradient>
    <linearGradient id="a2" x1="744" y1="208" x2="812" y2="208" gradientUnits="userSpaceOnUse">
      <stop stop-color="#34A8FF"/>
      <stop offset="1" stop-color="#55ED71"/>
    </linearGradient>
    <linearGradient id="curve" x1="218" y1="490" x2="1012" y2="490" gradientUnits="userSpaceOnUse">
      <stop stop-color="#55ED71"/>
      <stop offset="1" stop-color="#34A8FF"/>
    </linearGradient>
  </defs>
</svg>
